<svg id="レイヤー_2" data-name="レイヤー 2" xmlns="http://www.w3.org/2000/svg" viewBox="0 0 500 500"><defs><style>.cls-1{fill:#005595;isolation:isolate;}.cls-2,.cls-3{fill:#fff;}.cls-3{font-size:47.66px;font-family:HGSGyoshotai;}</style></defs><circle class="cls-1" cx="250" cy="250" r="250"/><path class="cls-2" d="M449,244a198.07,198.07,0,0,0-42.9-117.48q-3.81-4.82-7.91-9.38A198.62,198.62,0,0,0,254.49,51c-1.5,0-3-.06-4.49-.06-2.49,0-5,.06-7.43.15a198.71,198.71,0,0,0-142.46,68.05c-2.71,3.09-5.32,6.28-7.83,9.54A198,198,0,0,0,51,244c-.06,2-.1,4-.1,6s0,4,.1,6A198,198,0,0,0,88.85,366.8q3.59,4.93,7.44,9.63A198.86,198.86,0,0,0,242.57,449c2.47.09,4.94.15,7.43.15,1.5,0,3,0,4.49-.06A198.76,198.76,0,0,0,402,378.45q3.92-4.62,7.55-9.46A198,198,0,0,0,449,256c.06-2,.1-4,.1-6S449.07,246,449,244Zm-62.42-121.9a289.11,289.11,0,0,1-40.42,12.24,197.93,197.93,0,0,0-10.59-19.54C321.39,92,304.2,75.48,285.35,66.17A187.1,187.1,0,0,1,386.59,122.14ZM254.49,69.53c32.2,2.84,60.76,28.54,79.77,67.37a455.36,455.36,0,0,1-79.77,8Zm-44.82-2.34c-18,9.48-34.52,25.63-48.2,47.65A201.21,201.21,0,0,0,150.59,135a298.45,298.45,0,0,1-38.73-11.18A187.33,187.33,0,0,1,209.67,67.19Zm32.9,2.34V145a458.22,458.22,0,0,1-80-7.55C181.55,98.3,210.23,72.38,242.57,69.53Zm-139,63.95a291.25,291.25,0,0,0,42.08,12.77c-11.73,29.05-18.31,62.62-19,97.79H62.91A186.29,186.29,0,0,1,103.6,133.48ZM62.91,256h63.8c.62,32.89,6.38,64.4,16.73,92.1A281.61,281.61,0,0,0,100,361.8,186.14,186.14,0,0,1,62.91,256Zm44.85,115.59a288.36,288.36,0,0,1,40.3-12.16,202.49,202.49,0,0,0,13.41,25.76c13.69,22,30.15,38.18,48.21,47.66A187.36,187.36,0,0,1,107.76,371.55Zm134.81,58.92c-33.89-3-63.75-31.3-82.68-73.59a456.91,456.91,0,0,1,82.68-8.05Zm-40-90v-1.61a432.83,432.83,0,0,0-47.38,6.68c-9.94-26.16-15.93-56.76-16.58-89.55h64V244h-64c.69-35.22,7.55-67.93,18.86-95.3a469.37,469.37,0,0,0,85.11,8.15V166h11.92v-9.17a464.88,464.88,0,0,0,84.88-8.65c11.44,27.48,18.39,60.38,19.09,95.84H295.71V256h62.75c-.65,33-6.73,63.83-16.8,90.11a425.83,425.83,0,0,0-46-6.85v1.22Zm51.93,8.43a453.18,453.18,0,0,1,82.44,8.56c-18.95,42-48.7,70.06-82.44,73Zm30.86,85c18.85-9.31,36-25.82,50.23-48.68A201.43,201.43,0,0,0,348.72,360a275.65,275.65,0,0,1,42,13.3A187.23,187.23,0,0,1,285.35,433.83Zm113.24-70.11a270,270,0,0,0-45.23-15c10.5-27.86,16.36-59.6,17-92.76h66.74A186.22,186.22,0,0,1,398.59,363.72ZM370.35,244c-.67-35.43-7.33-69.23-19.22-98.42a279.37,279.37,0,0,0,43.8-14A186.29,186.29,0,0,1,437.09,244Z"/><path class="cls-2" d="M291.64,151.11H208.36a16.18,16.18,0,0,0-16.18,16.18V330a16.18,16.18,0,0,0,16.18,16.18h83.28A16.18,16.18,0,0,0,307.82,330V167.29A16.18,16.18,0,0,0,291.64,151.11ZM249.75,337.78a13.49,13.49,0,1,1,13.49-13.49A13.5,13.5,0,0,1,249.75,337.78Zm40.05-35.45H209.7V177h80.1Z"/><text class="cls-3" transform="translate(224.12 258.75)">AU</text></svg>